<svg alt="baby logo" viewBox="0 0 360 352.28">
  <defs>
    <style>
      .cls-2{fill:#5f9dd4}.cls-3{fill:#85cbf8}.cls-7{fill:#8d6c9f}
    </style>
  </defs>

  <g id="babby">
    <path id="skin" d="M186 10.28c-92.79 0-168 75.22-168 168s75.21 168 168 168 168-75.21 168-168-75.21-168-168-168Z" style="fill:#f9e3ae"/>
    <path id="shadow" d="M315.06 150.5c7.98 37.02.54 79.74-31.38 121.8a19.56 19.56 0 0 1-3.72 3.72c-42 31.86-84.72 39.24-121.74 31.32a18.01 18.01 0 1 0-7.2 35.28c47.58 10.08 102.66 0 156-39.6a19.06 19.06 0 0 0 3.96-3.96c39.66-53.22 49.68-108 39.6-156a18 18 0 0 0-30.42-9.18 17.98 17.98 0 0 0-5.1 16.62Z" style="fill:#f6d397"/>
    <path id="highlight" d="M262.02 53.84a18 18 0 0 0-4.44-28.74C181.01-12.7 88.26 12.96 42 84.74a18 18 0 0 0 15.48 27.53 18 18 0 0 0 14.94-8.1A132 132 0 0 1 241.2 57.19a18.02 18.02 0 0 0 20.82-3.36Z" style="fill:#faefde"/>
    <path id="mouth" d="M227.92 246.79c-70.39-16.15-117.02-4.84-131.76-.15.26-.61.44-1.26.5-1.96 3.18-33.31 31.88-59.4 65.34-59.4s62.16 26.09 65.34 59.4c.08.75.27 1.47.58 2.11Z" style="fill:#ca6587"/>
    <path id="tooth" d="M171.8 209.38h13.1c4.4 0 8-3.6 8-8v-9.1l-29.1-7v16.1c0 4.4 3.6 8 8 8Z" style="fill:#fff"/>
    <g id="stroke_outer" data-name="stroke outer">
      <path d="M360 178.28c0 95.94-78.06 174-174 174-72.6 0-135-44.7-160.98-108.06a129.06 129.06 0 0 1-4.56-12.48c1.08.36 2.28.54 3.54.54 3.18 0 6.06-1.2 8.22-3.3 1.2 3.96 2.7 7.86 4.32 11.7 24.42 58.44 82.2 99.6 149.46 99.6 89.34 0 162-72.66 162-162 0-50.42-23.15-95.54-59.38-125.26A161.13 161.13 0 0 0 186 16.28c-87.36 0-158.7 69.42-161.82 156-.12 1.98-.18 4.02-.18 6 0 3.24.12 6.48.36 9.72a45.7 45.7 0 0 0-10.2 17.7 160.54 160.54 0 0 1-1.98-21.66 92.32 92.32 0 0 1-.18-5.76c0-95.94 78.06-174 174-174a173.07 173.07 0 0 1 108.49 38.06l1.72 1.38C335.13 75.67 360 124.12 360 178.28Z" class="cls-7"/>
      <g id="hair" class="cls-7">
        <path d="M347.87 30.12a6 6 0 0 1-8.27 1.91c-10.15-6.33-28.33-.87-40.39 10.69a43.85 43.85 0 0 0-6.9 8.39c-.2.33-.44.64-.69.91a159.37 159.37 0 0 0-9.49-7.24l.01-.02a54.81 54.81 0 0 1 7.43-9.39 61.28 61.28 0 0 1 13.01-10.1c14.59-8.51 31.81-10.64 43.37-3.42a6 6 0 0 1 1.92 8.27Z"/>
        <path d="M302.58 25.27a76.6 76.6 0 0 1-10.27 25.84c-.2.33-.44.64-.69.91a159.37 159.37 0 0 0-9.49-7.24l.01-.02a64.64 64.64 0 0 0 9.78-38.39 6.01 6.01 0 0 1 11.98-.74c.4 6.65-.05 13.23-1.32 19.64Z"/>
      </g>
    </g>
    <g id="tears">
      <g id="tear_R" data-name="tear R">
        <path d="M318 220.28a18 18 0 0 1-36 0c0-32.99-6-54-6-54s42 12 42 54Z" class="cls-3"/>
        <path d="M300 244.28c-13.23 0-24-10.77-24-24 0-31.62-5.71-52.15-5.77-52.36a6 6 0 0 1 1.54-5.88c1.54-1.53 3.78-2.13 5.88-1.53.47.14 46.36 13.78 46.36 59.77 0 13.23-10.77 24-24 24Zm-15.68-67.97a252.83 252.83 0 0 1 3.68 43.97 12.01 12.01 0 0 0 24 0c0-24.91-16.51-37.98-27.68-43.97Z" class="cls-2"/>
      </g>
      <g id="tear_L" data-name="tear L">
        <path d="M48 166.28s-6 21.01-6 54a18 18 0 0 1-36 0c0-42 42-54 42-54Z" class="cls-3"/>
        <path d="M52.26 162.02a6.1 6.1 0 0 0-5.88-1.5c-.24.06-11.04 3.24-22.2 11.76a67.06 67.06 0 0 0-12 11.76C5.22 192.92 0 204.74 0 220.28a24 24 0 0 0 24 24c.36 0 .66 0 1.02-.06 4.2-.12 8.16-1.38 11.52-3.54A23.74 23.74 0 0 0 48 220.28c0-31.62 5.7-52.14 5.76-52.38.6-2.1 0-4.32-1.5-5.88ZM36 220.28c0 3.42-1.44 6.54-3.78 8.7a11.66 11.66 0 0 1-8.22 3.3 12.01 12.01 0 0 1-12-12c0-5.34.78-10.26 2.16-14.58a45.7 45.7 0 0 1 10.2-17.7 58.78 58.78 0 0 1 15.3-11.7A257.75 257.75 0 0 0 36 220.28Z" class="cls-2"/>
      </g>
    </g>
    <g id="stroke_inner" data-name="stroke inner">
      <path id="eyes" d="M90 112.28c-16.54 0-30 13.46-30 30a6 6 0 1 0 12 0c0-9.93 8.07-18 18-18s18 8.07 18 18a6 6 0 1 0 12 0c0-16.54-13.46-30-30-30Zm144 0c-16.54 0-30 13.46-30 30a6 6 0 1 0 12 0c0-9.93 8.07-18 18-18s18 8.07 18 18a6 6 0 1 0 12 0c0-16.54-13.46-30-30-30Z" class="cls-7"/>
      <path id="lip" d="M228.57 250.25a5.98 5.98 0 0 1-6.54-5.4c-2.92-30.6-29.29-54.57-60.03-54.57s-57.11 23.97-60.03 54.57a5.98 5.98 0 0 1-6.54 5.41 6 6 0 0 1-5.4-6.54c3.5-36.7 35.11-65.44 71.97-65.44s68.47 28.74 71.97 65.43a6 6 0 0 1-5.4 6.54Z" class="cls-7"/>
      <path id="wrinkle" d="M247.27 288.41a127.46 127.46 0 0 1-83.48 13.91 6 6 0 0 0-2.09 11.82 138.05 138.05 0 0 0 91.42-15.25 6 6 0 1 0-5.85-10.48Zm39.77-24.98a6 6 0 0 0-8.48.33 125.47 125.47 0 0 1-10.15 9.83 6.01 6.01 0 0 0 3.92 10.54c1.39 0 2.79-.48 3.92-1.46 3.88-3.36 7.62-6.98 11.12-10.77a6 6 0 0 0-.34-8.48Z" class="cls-7"/>
    </g>
  </g>

</svg>