<svg xmlns="http://www.w3.org/2000/svg" alt="wrestling baby" viewBox="0 0 1851.65 198.11"><g data-name="Layer 1"><g data-name="wrestling baby"><path d="M107.82 150.45c-.77-.13-1.15.52-1.59 1.01-2.47 2.77-4.84 6.93-7.26 10.01-6.71 8.52-22.58 27.57-31.86 31.99s-15.35-5.98-19.18-12.7c-7.89-23.23-17.62-45.98-23.19-69.95-1.33-5.74-2.09-11.65-3.51-17.36-2.51-10.09-6.62-19.85-8.88-30.06-1.62-7.34-2.36-14.9-4.31-22.19S-1.06 20.57.13 13.42c.71-4.23 8.39-8.19 12.28-8.6 7.66-.81 27.93-.74 34.6 2.29 17.45 7.92 17.27 39.71 19.02 56.06 1.35 12.64 2.46 30.53 6.64 42.33 1.92 5.42 4.07 7.6 8.07 2.08 8.57-11.81 13.49-31.17 27.36-38.9 3.34-1.86 9.35-3.86 13.16-3.26 2.2.35 7.88 6.25 9.46 8.21 5.88 7.31 10 16.99 12.88 25.87 2.57-1.4 3.61-6 4.61-8.84 8.04-22.78 15.17-45.99 23.74-68.6 1.16-3.06 5.61-15.49 7.16-17.13.17-.19 1.33-1.06 1.48-1.12 1.21-.47 8.98-.39 10.6-.19 3.31.42 7.57 2.37 11 3.07 7.64 1.55 24.78-.29 24.22 11.16-.55 11.31-12.49 38.16-17.22 49.82-8.9 21.92-21.42 45.03-29.03 66.93-5.4 15.55-9.1 46.44-23.72 55.77-15.96 10.18-27.26-11.95-34.95-22.03-4.53-5.93-9.71-11.57-13.66-17.87Zm232.88-46.39c-2.49 2.26-5 4.51-7.62 6.64-1.18.91.06 2.76.69 3.76 9.87 15.72 36.83 41.62 36.12 60.28s-18.14 13.96-30.78 15.02c-5.29.44-9.46 1.78-15.27 1.23-4.33-.41-6.84-4.72-8.57-8.3-5.24-10.84-8.11-24.01-14.77-34.21-1.22-1.86-3.21-3.87-4.57-5.87-1.28-1.89-6.94-11.83-8.65-11.84l-1 1.02-.82 10.82c-.65 8.52-1.46 17.17-1.99 25.7-.34 5.45.21 10.95-.45 16.41-.46 3.79-3.4 5.71-6.79 6.87-6.45 2.21-28.63 3.09-34.37-.19-6.3-3.59-3.95-12.44-4.19-18.69-1.92-50.01.89-100.11 3.22-150.05.19-4.09-1.13-12.54 2.36-15.3.98-.78 8.53-1.69 10.27-1.79 16.49-.99 34.16.39 50.64 1.24 17.73.91 40.49-.5 52.85 14.65 4.31 5.28 9.61 12.71 10.08 19.63 1.61 23.59-9.18 47.41-26.38 62.99Zm-30.05-34.82c3.82-4.24 4.41-13.04 3.25-18.41a9.73 9.73 0 0 0-7.67-7.59c-1.99-.45-6.79-.77-8.9-.78-3.17 0-5.41 3.83-5.37 6.71l-.67 23.82c.4.66.91.73 1.61.83 3.51.46 12.07-.78 15.19-2.53.47-.26 2.23-1.67 2.57-2.05Zm125.14-.86c.17.62 1.18.94 1.79 1.02 7.1.96 23.29-2.12 28.57 2.77 4.13 3.82 1.65 13.52 1.37 18.66-.29 5.43 1.18 14.12-3.18 18.1-.39.35-2.32 1.58-2.73 1.69-1.92.48-8.03.19-10.37.11-3.03-.1-6.59-.73-9.61-.84-3.28-.11-6.59.12-9.87.01l-1.15 36.67c.49 1.43 7.84 1.1 9.41 1.07 10.63-.22 31.51-4.1 40.77-.21 4.38 1.84 4.57 4.43 4.84 8.81.57 8.97-1.26 27.37-5.95 35.03-2.56 4.19-6.26 6.12-11.14 6.54-20.18-.76-41.02.95-61.12 0-19.19-.9-25.23-7.7-26.3-26.71-1.36-24.22 1.49-50.77 2.81-75.04 1.4-25.85 1.92-52.54 4.02-78.25.3-3.71-.91-7.53 2.68-10.16 2.04-1.5 2.92-.98 5.07-1.36 18.02-3.19 43.62.31 62.37.91 8.55.27 28-1.41 34.79 2.58s5.85 18.05 4.77 24.85c-.94 5.91-3.4 16.47-10.59 17.11-15.47 1.39-33.03-1.17-48.66-.03-.9.07-1.71.36-2.6.42v16.25Zm167.42-47.39c3.27 2.77 11.47 9.22 13.65 12.25.65.9 1.26 2.32 1.4 3.42.83 6.78-2.84 19.18-6.11 25.22-3.89 7.19-11.89 15.34-20.78 11.26-9.8-4.5-21.38-15.62-33.19-11.77-3.65 1.19-4.13 5.52-3.21 8.78 2.77 9.8 29.34 14.04 37.52 20.33 15.54 11.95 21.38 36.42 15.92 54.76-3.27 10.97-14.34 26.17-23.33 33.29-3.45 2.73-5.98 2.23-9.82 3.44-3.15.99-7.03 3.96-9.96 4.5-4.45.83-21.5.57-26.43.1-3.61-.35-7.85-1.74-11.66-2-7.41-.52-8.01.75-14.93-3.15a38.98 38.98 0 0 1-16.35-16.98c-4.76-9.25-7.51-16.47-4.23-26.99 4.32-13.86 17.2-18.58 30.38-13.17 12 4.93 16.08 20.46 30.83 20.11 4.25-.1 5.08-5.24 5.1-8.58.13-27.19-37.35-25.99-50.04-43.58-10.46-14.5-6.57-31.63.02-46.87 12.53-28.94 31.45-41.17 63.47-39.4 14.95.83 21.02 5.93 31.77 15.03Zm107.12 40.4c-.29.69-.4 1.4-.46 2.16-.69 9.38.53 16.06 1.94 24.99 2.29 14.51 1.65 32.01 2.08 46.88.1 3.58.32 7.2.4 10.84.42 19.6 5.59 36.74-18.78 41.42-12.73 2.44-30.57 2.03-33.45-13.75V67.57c-.5-1.86-.35-5.09-.87-6.74-.33-1.04-3.21-.69-4.16-.66-7.43.3-16.82 3.12-24.11 2.4s-9.01-9.63-9.44-15.45c-.88-11.88.58-24.84.08-36.83a5.76 5.76 0 0 1 4.53-3.5c7.16-.86 16.07.29 23.3.43 22.41.41 46.42 1.35 68.76.4 5.34-.23 10.62-1.55 15.64-2.04 5.97-.59 17.6 2.94 18.69 9.88.75 4.8.34 16.82.04 22.06-.5 8.89-3.15 25.36-14.27 26.68-9.64 1.15-20.25-2.46-29.92-2.79Zm142.5 127.04c-5.65 4.93-21.47 3.8-28.99 4.16-4.21.2-7.87 1.01-12.48.81-9.93-.43-19.48-3.6-29.33-4.43-5.23-.44-11.47 1.43-14.07-4.81-1.17-10.24-1.13-20.44-1.38-30.73-.87-35.57-.46-71.23 2.01-106.71 0-9.75-.54-20.34 3.53-29.38 6.43-14.28 17.65-9.15 30.02-7.76 5.53.62 11.14-.23 16.54 2.34 7.81 3.73 5.96 15.22 5.77 22.76-.45 18.25-2.53 36.34-3.22 54.58-.58 15.52-.89 30.99-1.21 46.55-.03 1.56-1.15 4.51.17 5.81.8.79 7.85.3 9.65.4 5.53.3 16.14.76 20.79 3.32a6.3 6.3 0 0 1 2.26 1.75c4.63 5.72 4.96 22.41 4.5 29.65-.25 3.95-1.5 8.99-4.58 11.68Zm60.19-6.51c-1.32 1.05-2.98 2.42-4.77 2.66-4.7.63-21.92.44-26.36-.6-14.63-3.41-12.35-22.2-12.82-33.35-.08-1.87-.78-4.13-.84-5.99-1.27-43.14 1-86.49 0-129.66.1-1.09.83-2.09 1.73-2.68 8.28-5.41 28.65-1.56 38.59-2.62 10.89 4.48 8.82 12.78 8.72 22.17-.51 46.66 3.5 92.98 1.64 139.69a14.92 14.92 0 0 1-5.88 10.38Zm72.58-.77c-.72 5.82-8.71 9.54-13.67 11.23-1.72.59-6.23 1.97-7.85 2.19-3.19.44-16.57.49-19.58-.07-2.5-.46-7.94-3.71-8.56-6.3-.47-25.39-.05-50.78.61-76.09.72-27.55 2.16-55.16 2.85-82.64.17-6.67-.64-14.44-.03-20.9a6.7 6.7 0 0 1 5.88-6.17c4.64-.64 14.74-.34 19.65-.03 5.92.37 14.09 2.22 19.18 5.33 12.23 7.47 23.26 41.09 29.77 54.95.85 1.81 6.55 14 7.32 14.36.15.07 1.05.16 1-.23.58-2.37.2-4.8.41-7.18 1.08-12.24 2.37-24.63 2.83-36.91.22-5.98-1.21-18.59 1.51-23.37 1.51-2.66 4.49-3.63 7.23-4.42 7.3-2.1 16.82-2.74 24.39-2.12 15.41 1.26 13.54 12.42 13.09 24.69-.57 15.48-2.49 30.98-3.25 46.52-1.57 31.76-.71 63.5-4.01 95.12-.73 7.04-1.22 20.03-8.84 23.28-4.15 1.77-18.46 1.39-22.99.09-8.47-2.43-10.26-8.37-13.87-15.45-9.05-17.79-17.76-35.84-26.53-53.77-1.9-3.89-3.79-7.82-5.31-11.88l-1.24-.24v70.03Zm215.66-127.17c-1.78 1.99-4.54 3.88-7.27 4.17-20.33 2.19-41.33-16.55-54.67 7.61-11.28 20.42-13.3 69.39 8.28 84.05 4.51 3.06 12.41 5.17 17.78 4.14 1.48-.28 2.14-3.83 2.29-5.32.2-1.86.32-16.77-.18-17.49-8.07-1.64-17.73 1.41-20.52-8.81-1.72-6.32-1.34-20.84 4.88-24.81 4.26-2.72 17.81-4.33 23.25-4.87 9.33-.94 23.43-2.04 32.56-1.23 6.99.62 5.5 4.38 5.79 9.46 1.33 22.99 2.06 58.99-12.11 78.17-11.34 15.36-34.11 17.6-51.46 13.39a343.86 343.86 0 0 1-24.75-6.99c-16.96-5.62-34.12-26.16-39.36-42.97-7.07-22.7-3.17-62.05 6.05-84.02 16.47-39.25 58.64-56.45 99.14-44.69 7.42 2.15 19.89 6.87 20.12 16.06.17 6.89-5.25 19-9.84 24.13Zm213.01-27.77c3.52 3.45 8.55 9.63 9.32 14.58.82 5.31.43 19.81-.9 24.99-1.85 7.2-8.76 18.83-13.66 24.48-2.56 2.95-6.02 4.94-8.64 7.82l11.06 9.41c7.62 7.93 7.86 14.93 7.43 25.52-.77 19.01-5.99 36.84-22.31 47.95-9.02 6.14-13.44 5.65-23.54 7.8-5.7 1.22-12.09 3.42-17.86 3.84-11.69.85-30.89.76-42.02-2.21-2.47-.66-6.75-2.39-7.2-5.25-1.15-7.27.83-17.3-.04-24.88-.09-1.09.42-2.1.44-3.17.8-48.49 2.82-96.9 3.01-145.48.46-.35 2.69-2.77 2.89-2.81 1.58-.34 4.15.16 5.94-.01 2.55-.24 5.11-.93 7.65-1.2 29.68-3.1 65.68-3.66 88.45 18.62Zm-56.9 44.78h9.04c.34 0 2.76-2.33 3.18-2.84 1.44-1.78 3.93-6.82 4.22-9.03 1.42-10.64-8.86-12.81-17.27-12.03-.41.29-.34.78-.4 1.21-.47 3.8.19 11.52.4 15.69.05 1.01.52 6.82.82 7.01Zm-5.57 78.2c.37.61 6.32.17 7.34.01 3.78-.58 5.81-1.91 7.55-5.31 2.09-4.1 3.31-12.13.11-15.89-2.19-2.57-7.59-3.12-10.81-3.25-5.01-.21-5.15 1.73-5.47 6.24l1.29 18.2Zm216.81 38.43c-1.11 1.5-4.28 2.7-6.1 2.92-6.29.78-13.73-.17-20.05-.38-4.6-.16-14.64.36-18.46-1.23-8.46-3.5-10.72-20.6-11.85-28.7-.9-6.44-.97-13.11-2.17-19.5-.26-1.37-1.45-6.91-2.38-7.45l-11.32.76c-4.04 1.12-8.35 1.29-12.41 2.06-3.47.66-3.73 1.05-4.28 4.55-1.56 9.82-1.52 19.77-2.07 29.64-.37 6.78-.11 14.04-6.36 18.53-6.2 4.45-19.13 3.17-26.8 3.34-5.71.13-12.34 1.24-18.04.39-3.57-.53-4.89-3.28-4.97-6.6-.1-4.46 1.51-11.39 2.43-15.95 4.87-24.3 12.08-48.61 17.28-73.04s9.89-57.52 20.21-80.95c1.69-3.84 5.29-11.25 9.28-12.81 2.74-1.07 10.22-.57 13.62-.85 15.74-1.32 34.79-7.05 46.82 6.24 25.33 27.98 27.15 92.32 33 128.78 2.36 14.71 6.75 29.51 6.41 44.56a10.43 10.43 0 0 1-1.78 5.69Zm-82.43-96.16h19.29l.6-.6V66.78c0-1.14-.89-3.15-2.22-3.4-2.03-.38-8.54-.19-10.83 0-6.73.55-6.26 1.9-7.33 7.93-.77 4.35-1.69 14.24-.9 18.34.1.54 1.02 1.71 1.4 1.81Zm195.36 11.4c4.35 3.68 11.06 10.86 12.13 16.58.71 3.77.42 15.78.09 19.97-1.42 18.11-9.58 34.72-25.59 43.88-7.26 4.15-12.2 3.75-19.92 5.39-5.47 1.16-11.86 3.44-17.39 3.91-11.14.95-31.9.74-42.5-2.1-2.41-.65-6.77-2.49-7.15-5.3-1.29-9.52 1.01-21.91 0-31.74.01-.95.42-1.83.44-2.78.73-45.75 2.97-91.43 2.37-137.29-.33-1.33 2.89-4.4 3.85-4.58 1.48-.28 3.59.14 5.21-.01 6.7-.61 13.34-2.11 20.08-2.42 25.06-1.17 53.47 0 73.37 17.07 12.59 10.8 13.48 18.65 12.45 34.91-.67 10.47-8.55 25.59-15.86 33.12-2.24 2.31-5.43 3.99-7.42 6.66-.15.84 4.86 3.91 5.83 4.73Zm-37.79-33.65c3.06-3.3 6.15-9.85 5.32-14.39-1.23-6.68-11.52-8.65-17.19-7.71l-.71.85 1.29 22.65c.38.56 7.34.51 8.44.35 1.24-.18 2.07-.89 2.86-1.75Zm-16.58 56.08c-.75.55-1.26 2.34-1.35 3.27-.48 5.07.36 10.28.82 15.27.24 2.65-1.21 5.94 2.6 5.83 2.43-.07 7.09-.54 9.16-1.72 5.77-3.29 8.32-18.02 1.33-21.59-2.15-1.1-6.79-1.58-9.26-1.61-.86 0-2.63.06-3.3.55Z"/><path d="M1828.64 50.76c-11.05 12.64-23.43 24.16-34.31 36.98-.16 13.35-.08 26.71-.1 40.06-.02 13.95.35 28.13-.79 42.12-.36 4.38-2 16.45-6.32 18.57-5.51 2.72-17.03 4.58-23.23 4.9-5.13.27-16.94.42-20.99-2.67-3.66-2.8-2.35-10.22-2.5-14.4-.81-22.4-.05-44.98-.8-67.42-.33-9.81-.97-24.85-5.5-33.43-4.05-7.65-11.03-14.58-16.14-21.6-4.58-6.29-8.39-13.31-13.01-19.52-3.63-4.88-8.14-9.02-11.93-13.77-2.18-9.56 4.83-12.43 13.02-12.99 10.21-.7 25.56-.67 35.78-.02 18.92 1.21 18.59 16.21 23.3 30.51.49 1.49 3.22 9.48 4.77 9.21 3.82-5.49 6.2-12.04 9.35-17.98 5.03-9.46 9.7-18.62 20.94-21.63 7.6-2.03 31.41-2.36 38.68.09 6.87 2.32 16.9 8.94 11.02 17.02-6.15 8.45-14.31 18.03-21.23 25.95Z"/></g></g></svg>